<svg id="_005-copy-black-interface-symbol-of-two-paper-sheets" data-name="005-copy-black-interface-symbol-of-two-paper-sheets" xmlns="http://www.w3.org/2000/svg" width="16.575" height="20.258" viewBox="0 0 16.575 20.258">
  <g id="Grupo_60" data-name="Grupo 60">
    <path id="Trazado_42" data-name="Trazado 42" d="M183.813,17.5V0H170V1.842h11.971V17.5Z" transform="translate(-167.237)" fill="#ff7900"/>
    <path id="Trazado_43" data-name="Trazado 43" d="M68,102.193V119.3a.191.191,0,0,0,.19.193H81.622a.191.191,0,0,0,.191-.193V102.193a.191.191,0,0,0-.19-.193H68.19A.191.191,0,0,0,68,102.193Zm1.842,2.569H79.971v.921H69.842Zm0,2.763H79.971v.921H69.842Zm0,2.763H79.971v.921H69.842Zm0,2.763H79.971v.921H69.842Zm0,2.763h6.446v.921H69.842Z" transform="translate(-68 -99.237)" fill="#ff7900"/>
  </g>
</svg>
