<svg xmlns="http://www.w3.org/2000/svg" width="12.5" height="13.333" viewBox="0 0 12.5 13.333">
  <g id="Grupo_29" data-name="Grupo 29" transform="translate(-588.414 -1073.042)">
    <g id="download" transform="translate(588.414 1073.042)">
      <g id="Grupo_26" data-name="Grupo 26" transform="translate(2.917)">
        <g id="Grupo_25" data-name="Grupo 25" transform="translate(0)">
          <path id="Trazado_18" data-name="Trazado 18" d="M128.035,6.078a.416.416,0,0,1,.379-.244h1.667V.417A.417.417,0,0,1,130.5,0h1.667a.417.417,0,0,1,.417.417V5.833h1.667a.416.416,0,0,1,.313.691l-2.917,3.333a.416.416,0,0,1-.627,0L128.1,6.524A.415.415,0,0,1,128.035,6.078Z" transform="translate(-127.998)" fill="#ff7900"/>
        </g>
      </g>
      <g id="Grupo_28" data-name="Grupo 28" transform="translate(0 9.167)">
        <g id="Grupo_27" data-name="Grupo 27" transform="translate(0)">
          <path id="Trazado_19" data-name="Trazado 19" d="M17.667,352v2.5h9.167V352H28.5v3.333a.833.833,0,0,1-.833.833H16.833a.833.833,0,0,1-.833-.833V352Z" transform="translate(-16 -352)" fill="#ff7900"/>
        </g>
      </g>
    </g>
  </g>
</svg>
