<svg xmlns="http://www.w3.org/2000/svg" width="24.78" height="24.713" viewBox="0 0 24.78 24.713">
  <g id="_003-objective" data-name="003-objective" transform="translate(0.517 0.5)">
    <g id="Grupo_74" data-name="Grupo 74">
      <path id="Trazado_66" data-name="Trazado 66" d="M19.615,7.458,23.57,3.5a.458.458,0,0,0-.307-.783l.014.027-2.151-.073L21.052.523a.458.458,0,0,0-.783-.307l-3.95,3.932a.458.458,0,0,0-.133.339v.458A10.327,10.327,0,1,0,18.832,7.59h.458A.458.458,0,0,0,19.615,7.458Zm.137,6A9.42,9.42,0,1,1,16.241,6.13l.023.764L14.433,8.726a6.271,6.271,0,1,0,.641.65L16.9,7.545l.755.027A9.412,9.412,0,0,1,19.752,13.454Zm-9.713.307a.458.458,0,0,0,.645,0l.915-.915a1.384,1.384,0,1,1-.645-.645l-.915.915A.458.458,0,0,0,10.039,13.761Zm1.584-2.234a2.289,2.289,0,1,0,.645.645L14.437,10a5.346,5.346,0,1,1-.645-.645Zm5.566-4.916-.064-1.95,3.067-3.067.05,1.524a.458.458,0,0,0,.458.458l1.524.05L19.139,6.675Z" transform="translate(0 -0.08)" fill="#4bb4e6" stroke="#4bb4e6" stroke-width="1"/>
    </g>
  </g>
</svg>
