<?xml version="1.0" encoding="utf-8"?>
<!-- Generator: Adobe Illustrator 23.0.4, SVG Export Plug-In . SVG Version: 6.00 Build 0)  -->
<svg version="1.1" id="Capa_1" xmlns="http://www.w3.org/2000/svg" xmlns:xlink="http://www.w3.org/1999/xlink" x="0px" y="0px"
	 viewBox="0 0 17.8 21" style="enable-background:new 0 0 17.8 21;" xml:space="preserve">
<style type="text/css">
	.st0{fill:#4BB4E6;}
</style>
<g id="_005-think">
	<path class="st0" d="M3,12.4v2.4c0,0.3,0.2,0.4,0.4,0.4l0,0h0.4v1.6H3.3c-0.3,0-0.4,0.2-0.4,0.4c0,0.3,0.2,0.4,0.4,0.4h0.4v2.1
		c0,0.3,0.2,0.4,0.4,0.4l0,0H9c0.3,0,0.4-0.2,0.4-0.4v-2.1h0.4c0.3,0,0.4-0.2,0.4-0.4c0-0.3-0.2-0.4-0.4-0.4H9.5v-1.6h0.4
		c0.3,0,0.4-0.2,0.4-0.4l0,0v-2.5c2.8-2.1,3.3-5.9,1.2-8.6S5.7,0.4,3,2.5s-3.3,5.9-1.2,8.6C2,11.6,2.4,12,3,12.4L3,12.4z M8.6,19.3
		h-4v-1.6h4V19.3z M8.6,16.8h-4v-1.6h4V16.8z M6.6,2.1c2.9,0,5.3,2.4,5.3,5.3c0,1.7-0.9,3.4-2.2,4.4c-0.2,0-0.2,0.2-0.2,0.3v2.2H7
		v-4.1C8.4,10,9.5,8.8,9.5,7.4C9.5,7.1,9.3,7,9.1,7S8.6,7.1,8.6,7.4c0.1,1.1-0.8,2.1-2,2.2c-1.1,0-2-0.9-2-2c0-0.1,0-0.2,0-0.2
		C4.6,7.2,4.3,7,4.2,7C4,7,3.7,7.2,3.7,7.5c0,1.5,1,2.7,2.5,2.8v4.1H3.7v-2.2c0-0.2-0.1-0.3-0.2-0.3c-2.4-1.7-3-5-1.3-7.4
		C3.2,3,4.9,2.1,6.6,2.1L6.6,2.1z"/>
	<path class="st0" d="M9.1,20.4H4.2c-0.4,0-0.6-0.3-0.6-0.6v-1.9H3.3c-0.4,0-0.6-0.3-0.6-0.6c0-0.4,0.3-0.6,0.6-0.6h0.3v-1.2H3.4
		c-0.4,0-0.6-0.3-0.6-0.6v-2.3c-0.5-0.4-0.9-0.8-1.2-1.3c-2.2-3-1.6-6.9,1.2-9c2.9-2.1,6.8-1.6,8.9,1.2c1,1.4,1.5,3.1,1.2,4.7
		c-0.2,1.6-1.1,3.1-2.4,4.1v2.4c0,0.4-0.3,0.6-0.6,0.6H9.7v1.2h0.2c0.4,0,0.6,0.3,0.6,0.6c0,0.4-0.3,0.6-0.6,0.6H9.7v1.9
		C9.7,20.1,9.5,20.4,9.1,20.4z M3.3,17.1c-0.1,0-0.2,0.1-0.2,0.2s0.1,0.2,0.2,0.2H4v2.3C4,19.9,4,20,4.2,20h4.9
		c0.1,0,0.2-0.1,0.2-0.2v-2.3h0.6c0.1,0,0.2-0.1,0.2-0.2s-0.1-0.2-0.2-0.2H9.3V15h0.6c0.1,0,0.2-0.1,0.2-0.2v-2.6l0.1-0.1
		c1.3-1,2.1-2.3,2.3-3.9s-0.2-3.1-1.2-4.4C9.3,1.1,5.7,0.6,3,2.6s-3.2,5.6-1.2,8.3C2,11.4,2.4,11.8,3,12.1l0.1,0.1v2.5
		c0,0.1,0.1,0.2,0.2,0.2H4V17H3.3V17.1z M8.9,19.5H4.4v-2.1h4.5V19.5z M4.8,19.1h3.6v-1.2H4.8V19.1z M8.9,17.1H4.4V15h4.5V17.1z
		 M4.8,16.6h3.6v-1.2H4.8V16.6z M6.5,14.6h-3v-2.5c0-0.1,0-0.1-0.1-0.2c-1.2-0.8-2-2.1-2.3-3.6c-0.2-1.3,0.1-2.8,1-4
		c1-1.5,2.7-2.4,4.5-2.4c3.1,0,5.6,2.5,5.6,5.6c0,1.8-0.9,3.5-2.3,4.6H9.8l0,0v2.5h-3V10H7c1.3-0.2,2.3-1.3,2.3-2.6
		c0-0.1-0.1-0.2-0.2-0.2C9,7.2,8.9,7.3,8.9,7.4C8.9,8,8.8,8.5,8.4,9s-1,0.8-1.7,0.8c-0.6,0-1.2-0.2-1.6-0.6c-0.4-0.4-0.7-1-0.7-1.5
		V7.5c0-0.1-0.2-0.2-0.2-0.2S4,7.3,4,7.5c0,1.4,1,2.5,2.3,2.6h0.2V14.6z M4,14.2h2v-3.7c-1.5-0.3-2.5-1.5-2.5-3
		c0-0.4,0.3-0.6,0.6-0.6s0.6,0.3,0.6,0.6v0.2c0,0.5,0.2,0.9,0.5,1.2C5.6,9.2,6,9.4,6.5,9.3c0.5,0,1-0.3,1.4-0.7
		c0.3-0.4,0.4-0.8,0.4-1.3c0-0.4,0.3-0.7,0.6-0.7c0.4,0,0.6,0.3,0.6,0.6c0,1.5-1.1,2.8-2.5,3v3.7h2.1v-2c0-0.3,0.2-0.4,0.3-0.5
		c1.3-1,2.1-2.6,2.1-4.2c0-2.8-2.3-5.1-5.1-5.1c-1.7,0-3.2,0.8-4.1,2.2C1.7,5.7,1.3,7,1.6,8.4c0.2,1.3,1,2.5,2.1,3.3
		C3.8,11.8,4,11.9,4,12.2V14.2z"/>
</g>
</svg>
