<svg xmlns="http://www.w3.org/2000/svg" width="22.296" height="22.296" viewBox="0 0 22.296 22.296">
  <g id="_004-success" data-name="004-success" transform="translate(0.5 0.5)">
    <path id="Trazado_67" data-name="Trazado 67" d="M10.648,0A10.648,10.648,0,1,0,21.3,10.648,10.66,10.66,0,0,0,10.648,0Zm0,20.477a9.829,9.829,0,1,1,9.829-9.829A9.84,9.84,0,0,1,10.648,20.477Z" fill="#fff" stroke="#fff" stroke-width="1"/>
    <path id="Trazado_68" data-name="Trazado 68" d="M22.751,15.137l-6.294,7.081-3.792-3.033a.41.41,0,0,0-.512.64l4.1,3.276a.41.41,0,0,0,.562-.048l6.553-7.372a.41.41,0,0,0-.613-.544Z" transform="translate(-7.086 -8.857)" fill="#fff" stroke="#fff" stroke-width="1"/>
  </g>
</svg>
