<svg xmlns="http://www.w3.org/2000/svg" width="22.252" height="19.967" viewBox="0 0 22.252 19.967">
  <g id="Grupo_69" data-name="Grupo 69" transform="translate(0.501 0.524)">
    <g id="Grupo_70" data-name="Grupo 70" transform="translate(0 0)">
      <g id="Grupo_69-2" data-name="Grupo 69" transform="translate(0 0)">
        <path id="Trazado_60" data-name="Trazado 60" d="M.225,35.279,10.3,27.9a.552.552,0,0,1,.652,0l10.073,7.375a.552.552,0,1,1-.652.891l-9.747-7.136L.878,36.17a.552.552,0,0,1-.652-.891Z" transform="translate(0.001 -27.798)" fill="#fff" stroke="#fff" stroke-width="1"/>
      </g>
    </g>
    <g id="Grupo_72" data-name="Grupo 72" transform="translate(2.343 8.498)">
      <g id="Grupo_71" data-name="Grupo 71">
        <path id="Trazado_61" data-name="Trazado 61" d="M57,232.543a.552.552,0,0,1,.552.552v8.788h4.417v-4.8a2.761,2.761,0,0,1,5.522,0v4.8h4.417V233.1a.552.552,0,1,1,1.1,0v9.34a.552.552,0,0,1-.552.552H66.943a.552.552,0,0,1-.55-.509.418.418,0,0,1,0-.043v-5.349a1.657,1.657,0,0,0-3.313,0v5.349a.408.408,0,0,1,0,.042.552.552,0,0,1-.55.51H57a.552.552,0,0,1-.552-.552V233.1A.552.552,0,0,1,57,232.543Z" transform="translate(-56.452 -232.543)" fill="#fff" stroke="#fff" stroke-width="1"/>
      </g>
    </g>
  </g>
</svg>
