<svg xmlns="http://www.w3.org/2000/svg" width="23.241" height="23.24" viewBox="0 0 23.241 23.24">
  <g id="_002-pen" data-name="002-pen" transform="translate(0.5 0.5)">
    <path id="Trazado_62" data-name="Trazado 62" d="M251.407.246A.507.507,0,0,0,251.043.1a.528.528,0,0,0-.364.149l-7.342,7.341-.02.021-.01.01c-.01.015-.026.031-.036.046s-.005.005-.005.01-.016.026-.026.041-.005.01-.01.015-.01.026-.015.041-.005.005-.005.01L241.9,11.724a.505.505,0,0,0,.123.523.516.516,0,0,0,.364.149.611.611,0,0,0,.164-.026l3.932-1.312s0,0,.01-.005a.184.184,0,0,0,.046-.02.018.018,0,0,0,.01-.005c.015-.01.036-.02.051-.031s.031-.026.046-.036.01,0,.01-.01.015-.01.021-.02l7.346-7.346a.51.51,0,0,0,0-.723ZM243.922,8.9l1.451,1.451-2.174.723Zm2.4.948-1.9-1.9,6.618-6.619,1.9,1.9Zm0,0" transform="translate(-231.936 -0.097)" fill="#fff" stroke="#fff" stroke-width="1"/>
    <path id="Trazado_63" data-name="Trazado 63" d="M18.261,90.55a.514.514,0,0,0-.513.513v9.582a1.543,1.543,0,0,1-1.538,1.538H2.563a1.543,1.543,0,0,1-1.538-1.538V87a1.543,1.543,0,0,1,1.538-1.538h9.581a.513.513,0,0,0,0-1.025H2.563A2.565,2.565,0,0,0,0,87v13.647a2.564,2.564,0,0,0,2.563,2.563H16.21a2.564,2.564,0,0,0,2.563-2.563V91.062A.514.514,0,0,0,18.261,90.55Zm0,0" transform="translate(0 -80.968)" fill="#fff" stroke="#fff" stroke-width="1"/>
  </g>
</svg>
