<svg xmlns="http://www.w3.org/2000/svg" width="21.152" height="15.864" viewBox="0 0 21.152 15.864">
  <path id="Path_64" data-name="Path 64" d="M19.169-19.5a1.912,1.912,0,0,1,1.4.578,1.912,1.912,0,0,1,.578,1.4v11.9a1.912,1.912,0,0,1-.578,1.4,1.912,1.912,0,0,1-1.4.578H1.983a1.912,1.912,0,0,1-1.4-.578A1.912,1.912,0,0,1,0-5.619v-11.9a1.912,1.912,0,0,1,.578-1.4,1.912,1.912,0,0,1,1.4-.578Zm0,1.983H1.983v1.694q1.446,1.157,5.577,4.379l.372.331a10.1,10.1,0,0,0,1.322.992,2.513,2.513,0,0,0,1.322.537,2.513,2.513,0,0,0,1.322-.537,10.1,10.1,0,0,0,1.322-.992l.372-.331q4.131-3.181,5.577-4.379ZM1.983-5.619H19.169V-13.3L14.377-9.5a11.981,11.981,0,0,1-1.694,1.239,4.161,4.161,0,0,1-2.107.661,4.379,4.379,0,0,1-2.148-.661A16.324,16.324,0,0,1,6.734-9.5L1.983-13.3Z" transform="translate(0 19.5)" fill="#4bb4e6"/>
</svg>
