<svg xmlns="http://www.w3.org/2000/svg" width="17.779" height="26.727" viewBox="0 0 17.779 26.727">
  <path id="_005-think" data-name="005-think" d="M20.356,24.1v3.36a.559.559,0,0,0,.559.559h.559v2.237h-.559a.559.559,0,0,0,0,1.119h.559v2.8a.559.559,0,0,0,.559.559h6.711a.559.559,0,0,0,.559-.559v-2.8h.559a.559.559,0,0,0,0-1.119H29.3V28.016h.559a.559.559,0,0,0,.559-.559V24.1a8.389,8.389,0,1,0-10.067,0Zm7.83,9.512H22.593V31.371h5.593Zm0-3.356H22.593V28.016h5.593Zm-2.8-20.134a7.268,7.268,0,0,1,4.155,13.232.558.558,0,0,0-.24.459V26.9H25.949V21.26a3.918,3.918,0,0,0,3.356-3.87.559.559,0,0,0-1.119,0,2.8,2.8,0,1,1-5.593,0,.559.559,0,0,0-1.119,0,3.918,3.918,0,0,0,3.356,3.87V26.9H21.474V23.81a.558.558,0,0,0-.24-.459,7.268,7.268,0,0,1,4.155-13.232Z" transform="translate(-16.5 -8.5)" fill="#4bb4e6" stroke="#4bb4e6" stroke-width="1"/>
</svg>
