<?xml version="1.0" encoding="utf-8"?>
<!-- Generator: Adobe Illustrator 23.0.6, SVG Export Plug-In . SVG Version: 6.00 Build 0)  -->
<svg version="1.1" id="Capa_1" xmlns="http://www.w3.org/2000/svg" xmlns:xlink="http://www.w3.org/1999/xlink" x="0px" y="0px"
	 viewBox="0 0 127 21" style="enable-background:new 0 0 127 21;" xml:space="preserve">
<style type="text/css">
	.st0{fill:#FFFFFF;}
</style>
<path class="st0" d="M51,19v-1.6c-0.4,0.5-1,1-1.7,1.3c-0.7,0.4-1.5,0.5-2.5,0.5c-0.6,0-1.2-0.1-1.8-0.3c-0.6-0.2-1.1-0.4-1.5-0.8
	c-0.4-0.3-0.8-0.8-1-1.3c-0.3-0.5-0.4-1.1-0.4-1.8v-0.1c0-0.7,0.1-1.4,0.4-1.9c0.3-0.5,0.6-1,1.1-1.3c0.5-0.4,1-0.6,1.7-0.8
	c0.7-0.2,1.4-0.3,2.1-0.3c0.8,0,1.5,0,2,0.1c0.6,0.1,1.1,0.2,1.6,0.4v-0.2c0-0.9-0.3-1.6-0.8-2.1c-0.6-0.5-1.4-0.7-2.4-0.7
	c-0.7,0-1.4,0.1-2,0.2c-0.6,0.2-1.2,0.3-1.8,0.6l-0.8-2.4c0.7-0.3,1.5-0.6,2.2-0.8c0.8-0.2,1.7-0.3,2.8-0.3c2,0,3.4,0.5,4.4,1.5
	c0.9,1,1.4,2.3,1.4,4.1V19H51z M51,13.4c-0.4-0.2-0.8-0.3-1.4-0.4s-1.1-0.1-1.7-0.1c-0.9,0-1.7,0.2-2.2,0.5C45.3,13.8,45,14.3,45,15
	v0c0,0.6,0.2,1.1,0.7,1.4c0.5,0.3,1.1,0.5,1.8,0.5c0.5,0,1-0.1,1.4-0.2c0.4-0.1,0.8-0.3,1.1-0.6c0.3-0.2,0.6-0.5,0.7-0.9
	c0.2-0.3,0.3-0.7,0.3-1.1V13.4z M49.5,0l2.7,1.2l-3,2.9h-2.3L49.5,0z"/>
<path class="st0" d="M67.6,19.2c-1.1,0-2-0.2-2.7-0.7c-0.7-0.5-1.3-1-1.8-1.6v2h-3V0.7h3l0,7.2c0.5-0.7,1.1-1.3,1.8-1.8
	c0.7-0.5,1.6-0.7,2.7-0.7c0.8,0,1.5,0.1,2.3,0.4c0.7,0.3,1.4,0.7,2,1.3c0.6,0.6,1,1.3,1.4,2.1c0.3,0.8,0.5,1.8,0.5,2.9v0
	c0,1.1-0.2,2.1-0.5,2.9c-0.3,0.8-0.8,1.6-1.4,2.1c-0.6,0.6-1.2,1-2,1.3S68.3,19.2,67.6,19.2z M66.9,16.6c0.5,0,1-0.1,1.5-0.3
	c0.5-0.2,0.9-0.5,1.2-0.8c0.3-0.4,0.6-0.8,0.8-1.3c0.2-0.5,0.3-1.1,0.3-1.8v0c0-0.6-0.1-1.2-0.3-1.7c-0.2-0.5-0.5-1-0.8-1.3
	c-0.3-0.4-0.7-0.6-1.2-0.8c-0.5-0.2-0.9-0.3-1.5-0.3c-0.5,0-1,0.1-1.5,0.3c-0.5,0.2-0.9,0.5-1.2,0.9c-0.3,0.4-0.6,0.8-0.8,1.3
	c-0.2,0.5-0.3,1.1-0.3,1.7v0c0,0.6,0.1,1.2,0.3,1.7c0.2,0.5,0.5,1,0.8,1.3c0.3,0.4,0.8,0.6,1.2,0.8C65.9,16.5,66.4,16.6,66.9,16.6z"
	/>
<path class="st0" d="M102.6,19.3c-1,0-1.9-0.2-2.7-0.5c-0.8-0.4-1.6-0.8-2.2-1.5c-0.6-0.6-1.1-1.3-1.4-2.2c-0.3-0.8-0.5-1.7-0.5-2.6
	v0c0-0.9,0.2-1.8,0.5-2.7c0.3-0.8,0.8-1.6,1.4-2.2C98.3,6.9,99,6.4,99.8,6c0.8-0.4,1.8-0.5,2.7-0.5c1.2,0,2.3,0.2,3.1,0.6
	c0.8,0.4,1.5,1,2.2,1.6l-1.9,2c-0.5-0.5-1-0.9-1.5-1.2c-0.5-0.3-1.2-0.5-1.9-0.5c-0.5,0-1.1,0.1-1.5,0.3c-0.5,0.2-0.9,0.5-1.2,0.9
	c-0.3,0.4-0.6,0.8-0.8,1.3c-0.2,0.5-0.3,1.1-0.3,1.6v0c0,0.6,0.1,1.1,0.3,1.6c0.2,0.5,0.5,1,0.8,1.3c0.3,0.4,0.8,0.7,1.2,0.9
	c0.5,0.2,1,0.3,1.6,0.3c0.7,0,1.3-0.2,1.9-0.5s1.1-0.7,1.5-1.2l1.8,1.8c-0.6,0.7-1.4,1.3-2.2,1.8C104.9,19,103.8,19.3,102.6,19.3z"
	/>
<path class="st0" d="M119.5,19.3c-1,0-1.9-0.2-2.8-0.5c-0.9-0.4-1.6-0.8-2.2-1.5c-0.6-0.6-1.1-1.3-1.5-2.2c-0.3-0.8-0.5-1.7-0.5-2.6
	v0c0-0.9,0.2-1.8,0.5-2.7c0.4-0.8,0.8-1.6,1.5-2.2c0.6-0.6,1.4-1.1,2.2-1.5c0.9-0.4,1.8-0.5,2.8-0.5c1,0,2,0.2,2.8,0.5
	c0.9,0.4,1.6,0.8,2.2,1.5c0.6,0.6,1.1,1.3,1.5,2.2c0.3,0.8,0.5,1.7,0.5,2.7v0c0,0.9-0.2,1.8-0.5,2.6c-0.4,0.8-0.8,1.6-1.5,2.2
	c-0.6,0.6-1.4,1.1-2.2,1.5C121.4,19.1,120.5,19.3,119.5,19.3z M119.5,16.6c0.6,0,1.2-0.1,1.7-0.3c0.5-0.2,0.9-0.5,1.3-0.9
	c0.3-0.4,0.6-0.8,0.8-1.3c0.2-0.5,0.3-1,0.3-1.6v0c0-0.6-0.1-1.1-0.3-1.6c-0.2-0.5-0.5-1-0.8-1.3c-0.4-0.4-0.8-0.7-1.3-0.9
	c-0.5-0.2-1-0.3-1.6-0.3c-0.6,0-1.1,0.1-1.6,0.3c-0.5,0.2-0.9,0.5-1.3,0.9c-0.3,0.4-0.6,0.8-0.8,1.3c-0.2,0.5-0.3,1.1-0.3,1.6v0
	c0,0.6,0.1,1.1,0.3,1.6c0.2,0.5,0.5,1,0.8,1.3c0.4,0.4,0.8,0.7,1.3,0.9C118.4,16.5,118.9,16.6,119.5,16.6z"/>
<g>
	<path class="st0" d="M89,8.7l-0.6,5.1c0,0.3-0.1,0.7-0.1,1c0,0.1,0,0.2,0.1,0.3c0.1,0.1,0.2,0.1,0.2,0.1c0.3,0,0.6-0.1,0.9-0.3
		c0.3-0.2,0.5-0.5,0.7-0.8c0.2-0.3,0.4-0.7,0.5-1.2c0.1-0.4,0.2-0.9,0.2-1.4c0-0.8-0.2-1.5-0.5-2.2c-0.3-0.6-0.7-1.2-1.3-1.7
		C88.7,7.3,88,7,87.3,6.7c-0.7-0.2-1.5-0.4-2.3-0.4c-1,0-1.8,0.2-2.6,0.5c-0.8,0.3-1.5,0.8-2.1,1.3c-0.6,0.6-1,1.2-1.4,2
		c-0.3,0.8-0.5,1.6-0.5,2.5c0,1,0.2,1.9,0.5,2.7c0.4,0.8,0.8,1.4,1.5,2c0.6,0.5,1.3,0.9,2.2,1.2c0.8,0.3,1.7,0.4,2.6,0.4
		c0.5,0,1,0,1.4-0.1c0.4,0,0.8-0.1,1.2-0.2c0.4-0.1,0.7-0.2,1.1-0.4c0.3-0.2,0.7-0.4,1.1-0.6l0.9,1.7c-0.8,0.5-1.7,0.9-2.6,1.2
		s-1.9,0.4-3,0.4c-1.4,0-2.6-0.2-3.6-0.7c-1.1-0.4-2-1-2.8-1.8c-0.8-0.8-1.3-1.6-1.8-2.6c-0.4-1-0.6-2.1-0.6-3.2
		c0-1.2,0.2-2.3,0.7-3.3c0.4-1,1-1.9,1.8-2.6s1.7-1.3,2.7-1.8c1-0.4,2.2-0.6,3.4-0.6c1.1,0,2.2,0.2,3.1,0.6c1,0.4,1.8,0.9,2.5,1.5
		c0.7,0.6,1.3,1.4,1.7,2.3c0.4,0.9,0.6,1.8,0.6,2.8c0,0.8-0.1,1.6-0.3,2.3c-0.2,0.7-0.5,1.3-0.9,1.8c-0.4,0.5-0.9,0.9-1.4,1.2
		c-0.6,0.3-1.2,0.4-1.9,0.4c-0.4,0-0.7-0.1-1-0.3c-0.3-0.2-0.6-0.5-0.8-0.8c-0.5,0.5-0.9,0.7-1.3,0.9c-0.4,0.1-0.8,0.2-1.2,0.2
		c-0.4,0-0.9-0.1-1.4-0.3c-0.5-0.2-0.9-0.5-1.3-0.9c-0.4-0.4-0.7-0.8-1-1.4c-0.3-0.5-0.4-1.1-0.4-1.8c0-0.6,0.1-1.2,0.4-1.7
		c0.2-0.5,0.6-1,1-1.4c0.4-0.4,0.9-0.7,1.4-0.9c0.5-0.2,1-0.3,1.6-0.3c0.6,0,1.1,0.1,1.6,0.3c0.4,0.2,0.8,0.5,1,0.9l0.2-1.1H89z
		 M82.3,12.8c0,0.3,0.1,0.5,0.2,0.8c0.1,0.3,0.3,0.5,0.4,0.7c0.2,0.2,0.4,0.3,0.7,0.5c0.3,0.1,0.5,0.2,0.8,0.2
		c0.3,0,0.5-0.1,0.8-0.2c0.3-0.1,0.5-0.3,0.7-0.5c0.2-0.2,0.3-0.4,0.4-0.7c0.1-0.3,0.2-0.5,0.2-0.8s-0.1-0.5-0.2-0.8
		s-0.3-0.5-0.4-0.7c-0.2-0.2-0.4-0.4-0.7-0.5c-0.3-0.1-0.5-0.2-0.8-0.2c-0.3,0-0.5,0.1-0.8,0.2c-0.3,0.1-0.5,0.3-0.7,0.5
		c-0.2,0.2-0.3,0.4-0.4,0.7S82.3,12.5,82.3,12.8z"/>
</g>
<g>
	<g>
		<g>
			<rect x="4.5" y="4.8" class="st0" width="0.2" height="11.4"/>
		</g>
		<g>
			<rect x="8.3" y="4.8" class="st0" width="0.2" height="11.4"/>
		</g>
		<g>
			<rect x="12.2" y="4.8" class="st0" width="0.2" height="11.4"/>
		</g>
		<g>
			<rect x="16" y="4.8" class="st0" width="0.2" height="11.4"/>
		</g>
		<g>
			<rect x="19.9" y="4.8" class="st0" width="0.2" height="11.4"/>
		</g>
		<g>
			<rect x="23.7" y="4.8" class="st0" width="0.2" height="11.4"/>
		</g>
		<g>
			<rect x="27.6" y="4.8" class="st0" width="0.2" height="11.4"/>
		</g>
		<g>
			<rect x="31.5" y="4.8" class="st0" width="0.2" height="11.4"/>
		</g>
	</g>
	<circle class="st0" cx="4.5" cy="6.6" r="0.9"/>
	<circle class="st0" cx="4.5" cy="8.4" r="0.9"/>
	<circle class="st0" cx="27.7" cy="6.6" r="0.9"/>
	<circle class="st0" cx="27.7" cy="8.4" r="0.9"/>
	<circle class="st0" cx="12.2" cy="6.2" r="0.9"/>
	<circle class="st0" cx="16.2" cy="15.3" r="0.9"/>
	<circle class="st0" cx="16.2" cy="13.5" r="0.9"/>
	<circle class="st0" cx="23.8" cy="15.3" r="0.9"/>
	<circle class="st0" cx="23.8" cy="13.5" r="0.9"/>
	<circle class="st0" cx="23.8" cy="11.8" r="0.9"/>
	<circle class="st0" cx="8.4" cy="15.2" r="0.9"/>
	<circle class="st0" cx="31.5" cy="15.2" r="0.9"/>
	<circle class="st0" cx="20" cy="15.2" r="0.9"/>
	<circle class="st0" cx="20" cy="13.4" r="0.9"/>
	<circle class="st0" cx="20" cy="11.6" r="0.9"/>
	<circle class="st0" cx="20" cy="9.8" r="0.9"/>
	<circle class="st0" cx="20" cy="8" r="0.9"/>
	<circle class="st0" cx="12.2" cy="8" r="0.9"/>
	<circle class="st0" cx="12.2" cy="9.8" r="0.9"/>
	<g>
		<path class="st0" d="M36,20.5H0.6V0.2H36V20.5z M2.1,19h32.4V1.7H2.1V19z"/>
	</g>
</g>
</svg>
