<?xml version="1.0" encoding="utf-8"?>
<!-- Generator: Adobe Illustrator 23.0.6, SVG Export Plug-In . SVG Version: 6.00 Build 0)  -->
<svg version="1.1" id="Capa_1" xmlns="http://www.w3.org/2000/svg" xmlns:xlink="http://www.w3.org/1999/xlink" x="0px" y="0px"
	 viewBox="0 0 124 124" style="enable-background:new 0 0 124 124;" xml:space="preserve">
<style type="text/css">
	.st0{fill:#FF7900;}
	.st1{fill:#FFFFFF;}
</style>
<g id="Grupo_53" transform="translate(-578 -168)">
	<rect id="Rectángulo_30" x="578" y="168" class="st0" width="124" height="124"/>
	<g>
		<path class="st1" d="M602.7,258.4v-1.8c-0.5,0.6-1.1,1.1-1.9,1.5c-0.8,0.4-1.7,0.6-2.9,0.6c-0.7,0-1.4-0.1-2-0.3
			c-0.6-0.2-1.2-0.5-1.7-0.9c-0.5-0.4-0.9-0.9-1.1-1.4c-0.3-0.6-0.4-1.2-0.4-2v-0.1c0-0.8,0.1-1.5,0.4-2.1c0.3-0.6,0.7-1.1,1.2-1.5
			c0.5-0.4,1.2-0.7,1.9-0.9c0.7-0.2,1.5-0.3,2.4-0.3c0.9,0,1.7,0.1,2.3,0.2c0.6,0.1,1.2,0.3,1.8,0.4v-0.3c0-1-0.3-1.8-0.9-2.3
			c-0.6-0.5-1.5-0.8-2.7-0.8c-0.8,0-1.6,0.1-2.2,0.3c-0.7,0.2-1.3,0.4-2,0.7l-0.9-2.7c0.8-0.4,1.7-0.7,2.5-0.9
			c0.9-0.2,1.9-0.3,3.1-0.3c2.2,0,3.8,0.5,4.9,1.6c1.1,1.1,1.6,2.6,1.6,4.6v8.8H602.7z M602.8,252.3c-0.4-0.2-0.9-0.3-1.5-0.4
			c-0.6-0.1-1.2-0.2-1.9-0.2c-1.1,0-1.9,0.2-2.5,0.6c-0.6,0.4-0.9,1-0.9,1.7v0.1c0,0.7,0.3,1.2,0.8,1.6c0.5,0.4,1.2,0.6,2,0.6
			c0.6,0,1.1-0.1,1.6-0.2c0.5-0.1,0.9-0.4,1.2-0.6c0.4-0.3,0.6-0.6,0.8-1c0.2-0.4,0.3-0.8,0.3-1.3V252.3z M601.1,237.2l3.1,1.4
			l-3.4,3.2h-2.6L601.1,237.2z"/>
		<path class="st1" d="M621.3,258.7c-1.2,0-2.2-0.3-3-0.8c-0.8-0.5-1.5-1.1-2-1.8v2.3h-3.4V238h3.4l0,8.1c0.5-0.8,1.2-1.4,2-2
			s1.8-0.8,3-0.8c0.9,0,1.7,0.2,2.5,0.5c0.8,0.3,1.6,0.8,2.2,1.5c0.6,0.7,1.2,1.5,1.6,2.4c0.4,1,0.6,2,0.6,3.3v0.1
			c0,1.2-0.2,2.3-0.6,3.3c-0.4,1-0.9,1.8-1.5,2.4c-0.6,0.7-1.4,1.1-2.2,1.5C623,258.6,622.2,258.7,621.3,258.7z M620.5,255.8
			c0.6,0,1.1-0.1,1.6-0.3c0.5-0.2,1-0.5,1.3-0.9c0.4-0.4,0.7-0.9,0.9-1.5c0.2-0.6,0.3-1.2,0.3-2V251c0-0.7-0.1-1.4-0.3-1.9
			c-0.2-0.6-0.5-1.1-0.9-1.5c-0.4-0.4-0.8-0.7-1.3-1c-0.5-0.2-1.1-0.3-1.6-0.3s-1.1,0.1-1.6,0.3c-0.5,0.2-1,0.5-1.4,1
			c-0.4,0.4-0.7,0.9-0.9,1.5c-0.2,0.6-0.3,1.2-0.3,1.9v0.1c0,0.7,0.1,1.4,0.3,1.9c0.2,0.6,0.5,1.1,0.9,1.5c0.4,0.4,0.8,0.7,1.4,1
			C619.4,255.7,619.9,255.8,620.5,255.8z"/>
		<path class="st1" d="M660.5,258.8c-1.1,0-2.1-0.2-3-0.6c-0.9-0.4-1.7-0.9-2.4-1.6c-0.7-0.7-1.2-1.5-1.6-2.4
			c-0.4-0.9-0.6-1.9-0.6-3v-0.1c0-1,0.2-2,0.6-3c0.4-0.9,0.9-1.8,1.6-2.5c0.7-0.7,1.5-1.3,2.4-1.7c0.9-0.4,2-0.6,3.1-0.6
			c1.4,0,2.6,0.2,3.5,0.7c0.9,0.5,1.7,1.1,2.4,1.8l-2.1,2.3c-0.5-0.5-1.1-1-1.7-1.3c-0.6-0.3-1.3-0.5-2.2-0.5
			c-0.6,0-1.2,0.1-1.7,0.4c-0.5,0.3-1,0.6-1.3,1c-0.4,0.4-0.7,0.9-0.9,1.5c-0.2,0.6-0.3,1.2-0.3,1.8v0.1c0,0.7,0.1,1.3,0.3,1.8
			c0.2,0.6,0.5,1.1,0.9,1.5c0.4,0.4,0.9,0.8,1.4,1c0.5,0.3,1.1,0.4,1.8,0.4c0.8,0,1.5-0.2,2.1-0.5c0.6-0.3,1.2-0.8,1.7-1.3l2,2
			c-0.7,0.8-1.6,1.5-2.5,2C663.1,258.5,661.9,258.8,660.5,258.8z"/>
		<path class="st1" d="M679.4,258.8c-1.1,0-2.2-0.2-3.1-0.6c-1-0.4-1.8-0.9-2.5-1.6c-0.7-0.7-1.2-1.5-1.6-2.4
			c-0.4-0.9-0.6-1.9-0.6-3v-0.1c0-1.1,0.2-2.1,0.6-3c0.4-0.9,1-1.7,1.6-2.4c0.7-0.7,1.5-1.3,2.5-1.7c1-0.4,2-0.6,3.1-0.6
			c1.1,0,2.2,0.2,3.1,0.6c1,0.4,1.8,1,2.5,1.6c0.7,0.7,1.2,1.5,1.6,2.4c0.4,0.9,0.6,1.9,0.6,3v0.1c0,1-0.2,2-0.6,3
			c-0.4,0.9-1,1.7-1.6,2.4c-0.7,0.7-1.5,1.3-2.5,1.7C681.6,258.6,680.6,258.8,679.4,258.8z M679.5,255.8c0.7,0,1.3-0.1,1.8-0.4
			c0.5-0.3,1-0.6,1.4-1c0.4-0.4,0.7-0.9,0.9-1.5c0.2-0.6,0.3-1.2,0.3-1.8v-0.1c0-0.7-0.1-1.3-0.3-1.8c-0.2-0.6-0.5-1.1-0.9-1.5
			c-0.4-0.4-0.9-0.8-1.4-1c-0.5-0.3-1.2-0.4-1.8-0.4s-1.3,0.1-1.8,0.4c-0.5,0.3-1,0.6-1.4,1c-0.4,0.4-0.7,0.9-0.9,1.5
			c-0.2,0.6-0.3,1.2-0.3,1.8v0.1c0,0.7,0.1,1.3,0.3,1.8c0.2,0.6,0.5,1.1,0.9,1.5c0.4,0.4,0.9,0.8,1.4,1
			C678.2,255.7,678.8,255.8,679.5,255.8z"/>
		<g>
			<g>
				<rect x="596.9" y="201.2" class="st1" width="0.6" height="35.4"/>
			</g>
			<g>
				<rect x="608.9" y="201.2" class="st1" width="0.6" height="35.4"/>
			</g>
			<g>
				<rect x="620.9" y="201.2" class="st1" width="0.6" height="35.4"/>
			</g>
			<g>
				<rect x="632.8" y="201.2" class="st1" width="0.6" height="35.4"/>
			</g>
			<g>
				<rect x="644.8" y="201.2" class="st1" width="0.6" height="35.4"/>
			</g>
			<g>
				<rect x="656.8" y="201.2" class="st1" width="0.6" height="35.4"/>
			</g>
			<g>
				<rect x="668.8" y="201.2" class="st1" width="0.6" height="35.4"/>
			</g>
			<g>
				<rect x="680.8" y="201.2" class="st1" width="0.6" height="35.4"/>
			</g>
		</g>
		<circle class="st1" cx="597.1" cy="207.1" r="2.8"/>
		<circle class="st1" cx="597.1" cy="212.6" r="2.8"/>
		<circle class="st1" cx="669.1" cy="207.1" r="2.8"/>
		<circle class="st1" cx="669.1" cy="212.6" r="2.8"/>
		<circle class="st1" cx="621.1" cy="205.8" r="2.8"/>
		<circle class="st1" cx="633.2" cy="233.9" r="2.8"/>
		<circle class="st1" cx="633.2" cy="228.3" r="2.8"/>
		<circle class="st1" cx="657.1" cy="233.9" r="2.8"/>
		<circle class="st1" cx="657.1" cy="228.5" r="2.8"/>
		<circle class="st1" cx="657.1" cy="222.9" r="2.8"/>
		<circle class="st1" cx="609.2" cy="233.8" r="2.8"/>
		<circle class="st1" cx="681" cy="233.8" r="2.8"/>
		<circle class="st1" cx="645" cy="233.7" r="2.8"/>
		<circle class="st1" cx="645" cy="228.1" r="2.8"/>
		<circle class="st1" cx="645" cy="222.4" r="2.8"/>
		<circle class="st1" cx="645" cy="216.8" r="2.8"/>
		<circle class="st1" cx="645" cy="211.1" r="2.8"/>
		<circle class="st1" cx="621.1" cy="211.3" r="2.8"/>
		<circle class="st1" cx="621.1" cy="216.9" r="2.8"/>
		<g>
			<path class="st1" d="M695.1,285H584.9V175h110.1V285z M589.7,280.3h100.7V179.7H589.7V280.3z"/>
		</g>
		<g>
			<path class="st1" d="M645.3,246.9l-0.7,5.8c0,0.4-0.1,0.7-0.1,1.1c0,0.2,0,0.3,0.1,0.4c0.1,0.1,0.2,0.1,0.3,0.1
				c0.4,0,0.7-0.1,1-0.3c0.3-0.2,0.6-0.5,0.8-0.9c0.2-0.4,0.4-0.8,0.5-1.3c0.1-0.5,0.2-1,0.2-1.5c0-0.9-0.2-1.7-0.5-2.4
				c-0.3-0.7-0.8-1.3-1.4-1.9c-0.6-0.5-1.3-0.9-2.1-1.2c-0.8-0.3-1.7-0.4-2.6-0.4c-1.1,0-2,0.2-3,0.5c-0.9,0.4-1.7,0.9-2.3,1.5
				c-0.7,0.6-1.2,1.4-1.5,2.2c-0.4,0.9-0.6,1.8-0.6,2.8c0,1.1,0.2,2.1,0.6,3c0.4,0.9,0.9,1.6,1.6,2.2c0.7,0.6,1.5,1.1,2.4,1.4
				c0.9,0.3,1.9,0.5,2.9,0.5c0.6,0,1.1,0,1.6-0.1c0.5,0,0.9-0.1,1.3-0.2c0.4-0.1,0.8-0.3,1.2-0.4c0.4-0.2,0.8-0.4,1.2-0.7l1,1.9
				c-0.9,0.6-1.9,1-3,1.3c-1,0.3-2.1,0.4-3.3,0.4c-1.5,0-2.9-0.2-4.1-0.7c-1.2-0.5-2.2-1.2-3.1-2c-0.8-0.8-1.5-1.8-2-3
				c-0.5-1.1-0.7-2.3-0.7-3.6c0-1.3,0.2-2.5,0.7-3.7c0.5-1.1,1.2-2.1,2-2.9s1.9-1.5,3-2c1.2-0.5,2.4-0.7,3.8-0.7
				c1.2,0,2.4,0.2,3.5,0.6c1.1,0.4,2,1,2.8,1.7c0.8,0.7,1.4,1.6,1.9,2.6c0.5,1,0.7,2,0.7,3.1c0,0.9-0.1,1.8-0.4,2.6
				c-0.2,0.8-0.6,1.5-1,2c-0.4,0.6-1,1-1.6,1.3c-0.6,0.3-1.3,0.5-2.1,0.5c-0.4,0-0.8-0.1-1.1-0.3c-0.3-0.2-0.6-0.5-0.9-0.9
				c-0.5,0.5-1,0.8-1.5,1c-0.5,0.1-0.9,0.2-1.3,0.2c-0.5,0-1-0.1-1.5-0.4c-0.5-0.2-1-0.6-1.5-1c-0.4-0.4-0.8-0.9-1.1-1.6
				c-0.3-0.6-0.4-1.3-0.4-2c0-0.7,0.1-1.4,0.4-2c0.3-0.6,0.6-1.1,1.1-1.5c0.4-0.4,1-0.8,1.5-1c0.6-0.2,1.2-0.3,1.8-0.3
				c0.7,0,1.2,0.1,1.7,0.4c0.5,0.3,0.9,0.6,1.1,1l0.2-1.2H645.3z M637.9,251.5c0,0.3,0.1,0.6,0.2,0.9c0.1,0.3,0.3,0.5,0.5,0.8
				c0.2,0.2,0.5,0.4,0.7,0.5c0.3,0.1,0.6,0.2,0.9,0.2c0.3,0,0.6-0.1,0.9-0.2c0.3-0.1,0.5-0.3,0.7-0.5c0.2-0.2,0.4-0.5,0.5-0.8
				c0.1-0.3,0.2-0.6,0.2-0.9c0-0.3-0.1-0.6-0.2-0.9c-0.1-0.3-0.3-0.5-0.5-0.8c-0.2-0.2-0.5-0.4-0.7-0.5c-0.3-0.1-0.6-0.2-0.9-0.2
				c-0.3,0-0.6,0.1-0.9,0.2c-0.3,0.1-0.5,0.3-0.7,0.5c-0.2,0.2-0.4,0.5-0.5,0.8C637.9,250.9,637.9,251.2,637.9,251.5z"/>
		</g>
	</g>
</g>
</svg>
