<svg xmlns="http://www.w3.org/2000/svg" xmlns:xlink="http://www.w3.org/1999/xlink" width="71" height="71" viewBox="0 0 71 71">
  <defs>
    <linearGradient id="linear-gradient" x1="0.5" x2="0.5" y2="1" gradientUnits="objectBoundingBox">
      <stop offset="0" stop-color="#d6d6d6"/>
      <stop offset="1" stop-color="#a5a5a5"/>
    </linearGradient>
  </defs>
  <g id="Grupo_173" data-name="Grupo 173" transform="translate(-623 -608.02)">
    <circle id="Elipse_22" data-name="Elipse 22" cx="35.5" cy="35.5" r="35.5" transform="translate(623 608.02)" fill="url(#linear-gradient)"/>
    <g id="_010-backward-time" data-name="010-backward-time" transform="translate(642 627.02)">
      <path id="Trazado_58" data-name="Trazado 58" d="M9.108,4H7V14.538h8.43V12.43H9.108Z" transform="translate(7.753 4.43)" fill="#fff"/>
      <path id="Trazado_59" data-name="Trazado 59" d="M16.86,0A16.186,16.186,0,0,0,2.318,8.641L0,6.323v8.43H8.43L5.269,11.592A13.2,13.2,0,0,1,16.86,4.215a12.645,12.645,0,0,1,0,25.291A12.333,12.333,0,0,1,7.376,25.08L4.215,27.82a16.456,16.456,0,0,0,12.645,5.9A16.86,16.86,0,0,0,16.86,0Z" transform="translate(0)" fill="#fff"/>
    </g>
  </g>
</svg>
