<svg xmlns="http://www.w3.org/2000/svg" xmlns:xlink="http://www.w3.org/1999/xlink" width="71" height="71" viewBox="0 0 71 71">
  <defs>
    <linearGradient id="linear-gradient" x1="0.884" y1="0.134" x2="0.127" y2="0.886" gradientUnits="objectBoundingBox">
      <stop offset="0" stop-color="#ff7900"/>
      <stop offset="1" stop-color="#ff6200"/>
    </linearGradient>
  </defs>
  <g id="Grupo_167" data-name="Grupo 167" transform="translate(-842 -159.02)">
    <g id="Grupo_127" data-name="Grupo 127" transform="translate(-27 9.02)">
      <g id="Grupo_126" data-name="Grupo 126">
        <circle id="Elipse_19" data-name="Elipse 19" cx="35.5" cy="35.5" r="35.5" transform="translate(869 150)" fill="url(#linear-gradient)"/>
      </g>
    </g>
    <g id="_004-writing" data-name="004-writing" transform="translate(860 175.02)">
      <g id="Grupo_59" data-name="Grupo 59">
        <g id="Grupo_58" data-name="Grupo 58">
          <path id="Trazado_37" data-name="Trazado 37" d="M125.091,201.515A1.515,1.515,0,0,0,123.576,200h-15.6a1.515,1.515,0,1,0,0,3.03h15.6A1.515,1.515,0,0,0,125.091,201.515Z" transform="translate(-100.408 -184.852)" fill="#fff"/>
          <path id="Trazado_38" data-name="Trazado 38" d="M107.974,280a1.515,1.515,0,1,0,0,3.03h9.476a1.515,1.515,0,1,0,0-3.03Z" transform="translate(-100.408 -258.793)" fill="#fff"/>
          <path id="Trazado_39" data-name="Trazado 39" d="M37.7,35.749H32.629a3.033,3.033,0,0,1-3.03-3.03V6.059a3.033,3.033,0,0,1,3.03-3.03H51.252a3.033,3.033,0,0,1,3.03,3.03v9.316a1.515,1.515,0,0,0,3.03,0V6.059A6.066,6.066,0,0,0,51.252,0H32.629A6.066,6.066,0,0,0,26.57,6.059v26.66a6.066,6.066,0,0,0,6.059,6.059H37.7a1.515,1.515,0,1,0,0-3.03Z" transform="translate(-26.57)" fill="#fff"/>
          <path id="Trazado_40" data-name="Trazado 40" d="M260.455,273.353a4.549,4.549,0,0,0-6.425,0l-8.316,8.3a1.515,1.515,0,0,0-.379.632l-1.811,5.963a1.515,1.515,0,0,0,1.854,1.9l6.114-1.694a1.514,1.514,0,0,0,.666-.388l8.3-8.283A4.55,4.55,0,0,0,260.455,273.353ZM250.3,285.638l-3.076.852.9-2.964,5.611-5.6,2.143,2.143Zm8.016-8-.293.293-2.142-2.142.292-.292a1.515,1.515,0,0,1,2.143,2.141Z" transform="translate(-227.03 -251.421)" fill="#fff"/>
          <path id="Trazado_41" data-name="Trazado 41" d="M123.576,120h-15.6a1.515,1.515,0,1,0,0,3.03h15.6a1.515,1.515,0,1,0,0-3.03Z" transform="translate(-100.408 -110.911)" fill="#fff"/>
        </g>
      </g>
    </g>
  </g>
</svg>
