<svg xmlns="http://www.w3.org/2000/svg" xmlns:xlink="http://www.w3.org/1999/xlink" width="71" height="71" viewBox="0 0 71 71">
  <defs>
    <linearGradient id="linear-gradient" x1="0.884" y1="0.134" x2="0.127" y2="0.886" gradientUnits="objectBoundingBox">
      <stop offset="0" stop-color="#ff7900"/>
      <stop offset="1" stop-color="#4bb4e6"/>
    </linearGradient>
  </defs>
  <g id="Grupo_165" data-name="Grupo 165" transform="translate(-499 -159.02)">
    <circle id="Elipse_17" data-name="Elipse 17" cx="35.5" cy="35.5" r="35.5" transform="translate(499 159.02)" fill="url(#linear-gradient)"/>
    <path id="Trazado_30" data-name="Trazado 30" d="M26.1,12.6a7.859,7.859,0,0,1,3.657,5.839A6.341,6.341,0,1,0,26.1,12.6ZM21.945,25.583A6.343,6.343,0,1,0,15.6,19.24,6.343,6.343,0,0,0,21.945,25.583Zm2.691.432H19.253a8.132,8.132,0,0,0-8.122,8.122V40.72l.017.1.453.142a36.97,36.97,0,0,0,11.043,1.781,22.671,22.671,0,0,0,9.642-1.81l.424-.214h.045V34.138A8.129,8.129,0,0,0,24.636,26.016ZM35.13,19.467H29.789a7.818,7.818,0,0,1-2.413,5.445,9.651,9.651,0,0,1,6.893,9.235v2.028a21.856,21.856,0,0,0,8.513-1.788l.424-.215h.045V27.588A8.131,8.131,0,0,0,35.13,19.467Zm-24.316-.432a6.3,6.3,0,0,0,3.374-.979,7.85,7.85,0,0,1,2.951-5.007c.006-.119.018-.236.018-.356a6.343,6.343,0,1,0-6.342,6.342Zm5.7,5.877A7.822,7.822,0,0,1,14.1,19.5c-.2-.015-.394-.03-.6-.03H8.122A8.131,8.131,0,0,0,0,27.588v6.584l.017.1.453.143a38.08,38.08,0,0,0,9.146,1.719V34.148A9.653,9.653,0,0,1,16.511,24.912Z" transform="translate(512.853 169.774)" fill="#fff"/>
  </g>
</svg>
