<svg xmlns="http://www.w3.org/2000/svg" width="21.59" height="21.135" viewBox="0 0 21.59 21.135">
  <path id="Trazado_3" data-name="Trazado 3" d="M18.621,12.4l-.546-1.3a23.784,23.784,0,0,0,1.157-2.969L17.554,6.494a23.134,23.134,0,0,0-2.978,1.191l-1.32-.533a23.6,23.6,0,0,0-1.327-2.9H9.559A22.1,22.1,0,0,0,8.317,7.16L7,7.7A25.1,25.1,0,0,0,3.964,6.56L2.287,8.2a22.019,22.019,0,0,0,1.219,2.916l-.544,1.3A24.393,24.393,0,0,0,0,13.709v2.322a23.205,23.205,0,0,0,2.969,1.217l.545,1.291A23.66,23.66,0,0,0,2.357,21.51l1.679,1.641a23.646,23.646,0,0,0,2.976-1.195l1.321.537a23.267,23.267,0,0,0,1.326,2.9h2.37a22.251,22.251,0,0,0,1.244-2.906l1.32-.535a24.991,24.991,0,0,0,3.031,1.135L19.3,21.44a22.361,22.361,0,0,0-1.221-2.914l.546-1.3a24.441,24.441,0,0,0,2.963-1.3v-2.32A23.274,23.274,0,0,0,18.621,12.4ZM10.8,18.207a3.387,3.387,0,1,1,3.459-3.387A3.429,3.429,0,0,1,10.8,18.207Z" transform="translate(0 -4.254)" fill="#fff"/>
</svg>
