<svg xmlns="http://www.w3.org/2000/svg" width="20.709" height="20" viewBox="0 0 20.709 20">
  <g id="logout" transform="translate(0 -1.66)">
    <g id="Grupo_5" data-name="Grupo 5" transform="translate(0 1.66)">
      <path id="Trazado_1" data-name="Trazado 1" d="M13.067,19.233H2.428V4.088h10.64a.427.427,0,0,0,.427-.427V2.087a.427.427,0,0,0-.427-.427H.427A.427.427,0,0,0,0,2.087V21.233a.427.427,0,0,0,.427.427h12.64a.427.427,0,0,0,.427-.427V19.66A.427.427,0,0,0,13.067,19.233Z" transform="translate(0 -1.66)" fill="#fff"/>
      <path id="Trazado_2" data-name="Trazado 2" d="M34.532,25.446,28.78,19.7a.44.44,0,0,0-.6,0L26.812,21.06a.427.427,0,0,0,0,.6l2.6,2.6H18.164a.427.427,0,0,0-.427.427v2.117a.427.427,0,0,0,.427.427H29.41l-2.6,2.6a.427.427,0,0,0,0,.6L28.177,31.8a.427.427,0,0,0,.6,0l5.751-5.751a.427.427,0,0,0,0-.6Z" transform="translate(-13.948 -15.748)" fill="#fff"/>
    </g>
  </g>
</svg>
